<svg id="Layer_1" data-name="Layer 1" xmlns="http://www.w3.org/2000/svg" viewBox="0 0 64 64"><defs><style>.cls-1{fill:#fdd870;}.cls-2{fill:#838f9a;}.cls-3{fill:#76cbea;}.cls-4{fill:#b4d380;}.cls-5{fill:#1e1814;}</style></defs><path class="cls-1" d="M59,14l-5,7-5-7h3V8L43,6V5l9.86-1h.28A2.86,2.86,0,0,1,56,6.86V14Z"/><path class="cls-1" d="M21,58v1l-9.86,1h-.28A2.86,2.86,0,0,1,8,57.14V50H5l5-7,5,7H12v6Z"/><path class="cls-2" d="M42,58l-2.59,2.59a4.83,4.83,0,0,1-6.82,0l-7.18-7.18a4.83,4.83,0,0,1,0-6.82L28,44Z"/><path class="cls-2" d="M60.59,32.59a4.83,4.83,0,0,1,0,6.82L58,42,44,28l2.59-2.59a4.83,4.83,0,0,1,6.82,0Z"/><path class="cls-2" d="M20,36l-2.59,2.59a4.83,4.83,0,0,1-6.82,0L3.41,31.41a4.83,4.83,0,0,1,0-6.82L6,22Z"/><path class="cls-2" d="M38.59,10.59a4.83,4.83,0,0,1,0,6.82L36,20,22,6l2.59-2.59a4.83,4.83,0,0,1,6.82,0Z"/><polygon class="cls-3" points="44 28 43.48 28.52 28.51 43.48 28 44 42 58 58 42 44 28"/><rect class="cls-3" x="9.69" y="11.1" width="22.63" height="19.8" transform="translate(-8.7 21) rotate(-45)"/><path class="cls-4" d="M52,42,42,52l-8.14-8.14a12,12,0,0,0,10-10Z"/><path class="cls-4" d="M22,12l8.14,8.14a12,12,0,0,0-10,10L12,22Z"/><path class="cls-1" d="M44,32a12.73,12.73,0,0,1-.14,1.86,12,12,0,0,1-10,10A12.73,12.73,0,0,1,32,44a11.79,11.79,0,0,1-3.49-.52A12,12,0,0,1,20,32a12.73,12.73,0,0,1,.14-1.86,12,12,0,0,1,10-10A12.73,12.73,0,0,1,32,20a11.84,11.84,0,0,1,3.49.52,12,12,0,0,1,8,8A11.77,11.77,0,0,1,44,32Z"/><rect class="cls-5" x="9" y="27.76" width="2" height="8.49" transform="translate(-19.7 16.44) rotate(-45)"/><rect class="cls-5" x="31" y="7.17" width="2" height="5.66" transform="translate(2.3 25.56) rotate(-45)"/><path class="cls-5" d="M61.29,31.88l-7.17-7.17a5.82,5.82,0,0,0-8.24,0l-2,2a13.07,13.07,0,0,0-6.59-6.59l2-2a5.82,5.82,0,0,0,0-8.24L32.12,2.71a5.82,5.82,0,0,0-8.24,0L2.71,23.88a5.82,5.82,0,0,0,0,8.24l7.17,7.17a5.82,5.82,0,0,0,8.24,0l2-2a13.07,13.07,0,0,0,6.59,6.59l-2,2a5.82,5.82,0,0,0,0,8.24l7.17,7.17a5.82,5.82,0,0,0,8.24,0L61.29,40.12a5.82,5.82,0,0,0,0-8.24Zm-16.87,4L50.59,42,42,50.59l-6.16-6.17A13.05,13.05,0,0,0,44.42,35.84ZM33.49,44.91,42,53.41,53.41,42l-8.5-8.51A14.54,14.54,0,0,0,45,32a12.08,12.08,0,0,0-.13-1.71L56.59,42,42,56.59,30.29,44.87A12.08,12.08,0,0,0,32,45,14.54,14.54,0,0,0,33.49,44.91ZM19.58,28.16,13.41,22,22,13.41l6.16,6.17A13.05,13.05,0,0,0,19.58,28.16Zm10.93-9.07L22,10.59,10.59,22l8.5,8.51A14.54,14.54,0,0,0,19,32a12.08,12.08,0,0,0,.13,1.71L7.41,22,22,7.41,33.71,19.13A12.08,12.08,0,0,0,32,19,14.54,14.54,0,0,0,30.51,19.09Zm-5.22-15a3.84,3.84,0,0,1,5.42,0l7.17,7.17a3.84,3.84,0,0,1,0,5.42L36,18.59,23.41,6ZM16.71,37.88a3.84,3.84,0,0,1-5.42,0L4.12,30.71a3.84,3.84,0,0,1,0-5.42L6,23.41,18.59,36ZM21,32A11,11,0,1,1,32,43,11,11,0,0,1,21,32ZM38.71,59.88a3.84,3.84,0,0,1-5.42,0l-7.17-7.17a3.84,3.84,0,0,1,0-5.42L28,45.41,40.59,58ZM59.88,38.71,58,40.59,45.41,28l1.88-1.88a3.84,3.84,0,0,1,5.42,0l7.17,7.17a3.84,3.84,0,0,1,0,5.42Z"/><rect class="cls-5" x="31" y="49.76" width="2" height="8.49" transform="translate(-28.81 38.44) rotate(-45)"/><rect class="cls-5" x="53" y="29.17" width="2" height="5.66" transform="translate(-6.81 47.56) rotate(-45)"/><path class="cls-5" d="M33,36.41a3.4,3.4,0,0,0,0-4.82L32.41,31a1.42,1.42,0,0,1,0-2L34,27.41,35.59,29a1.42,1.42,0,0,1,0,2l-1.3,1.29,1.42,1.42L37,32.41A3.4,3.4,0,0,0,38,30a3.44,3.44,0,0,0-.63-2l1.34-1.33-1.42-1.42L36,26.59l-2-2-3,3A3.44,3.44,0,0,0,30,30a3.4,3.4,0,0,0,1,2.41l.59.59a1.42,1.42,0,0,1,0,2L30,36.59,28.41,35a1.42,1.42,0,0,1,0-2l1.3-1.29-1.42-1.42L27,31.58A3.4,3.4,0,0,0,26.63,36l-1.34,1.33,1.42,1.42L28,37.41l2,2Z"/><path class="cls-5" d="M13,51h3.94L10,41.28,3.06,51H7v6.14A3.86,3.86,0,0,0,10.86,61l.38,0L22,59.91V57.2l-9-2Zm4.8,7.31L11,59a1.86,1.86,0,0,1-2-1.85V49H6.94L10,44.72,13.06,49H11v7.8Z"/><path class="cls-5" d="M51,13H47.06L54,22.72,60.94,13H57V6.86A3.86,3.86,0,0,0,53.14,3l-.38,0L42,4.09V6.8l9,2ZM46.19,5.69,53,5a1.88,1.88,0,0,1,2,1.85V15h2.06L54,19.28,50.94,15H53V7.2Z"/><circle class="cls-5" cx="37" cy="37" r="1"/><circle class="cls-5" cx="27" cy="27" r="1"/></svg>